<svg xmlns="http://www.w3.org/2000/svg" width="1017" height="1431" viewBox="0 0 1017 1431"><defs><clipPath id="8ngha"><path fill="#fff" d="M942.197 20s-246.08-97.238-351 141c0 0-26.44 78.384-26 166 0 0-11.56 138.847-163 185 0 0-151.68 2.62-213 100 0 0-64.84 76.05-49 220 0 0 36.16 126.34-38 180 0 0-144.24 90.14-90 218 0 0 59.04 212.313 328 197 0 0 147.84-78.766 330-15 0 0 279.44 93.972 346-139l-77-1240z"/></clipPath></defs><g><g opacity=".55"><path fill="#f8f2ff" d="M942.197 20s-246.08-97.238-351 141c0 0-26.44 78.384-26 166 0 0-11.56 138.847-163 185 0 0-151.68 2.62-213 100 0 0-64.84 76.05-49 220 0 0 36.16 126.34-38 180 0 0-144.24 90.14-90 218 0 0 59.04 212.313 328 197 0 0 147.84-78.766 330-15 0 0 279.44 93.972 346-139l-77-1240z"/><path fill="none" stroke="#fff" stroke-miterlimit="50" stroke-width="6" d="M942.197 20v0s-246.08-97.238-351 141c0 0-26.44 78.384-26 166 0 0-11.56 138.847-163 185 0 0-151.68 2.62-213 100 0 0-64.84 76.05-49 220 0 0 36.16 126.34-38 180 0 0-144.24 90.14-90 218 0 0 59.04 212.313 328 197 0 0 147.84-78.766 330-15 0 0 279.44 93.972 346-139l-77-1240v0z" clip-path="url(&quot;#8ngha&quot;)"/></g></g></svg>