<svg xmlns="http://www.w3.org/2000/svg" width="56" height="48" viewBox="0 0 56 48"><g><g><g><g><g><g><path fill="#f5576c" d="M46.436 14.24a5.98 5.98 0 0 1-5.982-5.983c0-3.307 2.729-5.93 5.982-5.93a5.98 5.98 0 0 1 5.983 5.982c0 3.306-2.676 5.93-5.983 5.93zm0-13.593c-4.25 0-7.609 3.411-7.609 7.662 0 4.25 3.411 7.61 7.61 7.61 4.198 0 7.661-3.412 7.661-7.662 0-4.251-3.41-7.61-7.662-7.61z"/></g></g></g><g><g><g><path fill="#1c8dff" d="M48.85 9.464c-.052-.158-.052-.263-.157-.42-.053-.105-.105-.263-.21-.368-.105-.105-.157-.21-.262-.315-.105-.104-.21-.21-.368-.262-.105-.105-.262-.157-.367-.21-.158-.052-.262-.157-.42-.21a3.621 3.621 0 0 1-.42-.157.398.398 0 0 1-.21-.105c-.052-.053-.157-.053-.21-.105-.052-.053-.157-.053-.21-.105l-.157-.157c-.052-.053-.105-.105-.105-.21-.052-.053-.052-.158-.052-.21v-.263c0-.052.052-.157.052-.21.053-.052.053-.157.105-.21l.158-.157a.4.4 0 0 1 .262-.105c.105-.052.157-.052.262-.052h.315c.105 0 .158 0 .263.052.105 0 .21.053.262.053.053 0 .157.052.21.052.105 0 .157.053.21.053l.262.104.053-.314.105-.84v-.21l-.21-.052c-.053 0-.158-.053-.21-.053-.053 0-.105-.052-.21-.052-.053 0-.157-.053-.263-.053-.104 0-.157-.052-.262-.052h-.052v-.997h-1.26v1.049h-.052c-.158.053-.315.105-.473.21-.157.053-.262.157-.367.262a2.28 2.28 0 0 0-.315.368c-.105.105-.157.262-.21.42l-.157.472c-.053.157-.053.367-.053.525 0 .157 0 .262.053.42.052.157.052.262.157.42.053.104.158.262.21.367.105.105.158.21.263.315.105.105.21.21.367.262.105.105.262.157.367.21.158.052.315.157.42.21.157.052.315.105.42.157.052 0 .157.053.21.105.052.053.157.053.21.105.052.053.105.105.157.105l.158.158c.052.052.052.105.105.21 0 .052.052.157.052.262v.262a.398.398 0 0 1-.105.21l-.157.158c-.053.052-.105.105-.21.157-.053.052-.158.052-.21.105-.053 0-.158.052-.263.052H45.65c-.105 0-.21-.052-.262-.052-.105 0-.21-.052-.315-.105-.105-.052-.21-.052-.315-.105-.052 0-.105-.052-.157-.052-.053 0-.105-.053-.158-.053l-.315-.157-.052.367-.105.945v.157l.157.053c.21-.053.315 0 .473.052a.973.973 0 0 0 .367.105c.105.052.262.052.42.105.157.052.262.052.42.052h.105v1.05h1.259V12.14h.053c.157-.053.314-.105.472-.21.157-.052.262-.157.42-.262.105-.105.21-.21.315-.368.104-.105.157-.262.262-.42l.157-.472c.053-.157.053-.315.053-.525 0-.157 0-.262-.053-.42z"/></g></g></g><g><g><g><path fill="#f5576c" d="M42.763 16.915c-.262-.367-.84-.42-1.207-.157l-8.502 6.77-10.967-4.566a.837.837 0 0 0-.788.105L9.544 27.464c-.367.262-.472.787-.21 1.154.158.262.42.367.683.367a.846.846 0 0 0 .472-.157l11.388-8.134 11.02 4.565c.262.105.63.053.84-.105l8.868-7.032c.368-.262.42-.84.158-1.207z"/></g></g></g><g><g><g><path fill="#1c8dff" d="M49.48 45.673h-6.035V22.216h6.035zm-12.28 0h-6.035v-15.06H37.2zm-12.227 0h-6.035v-16.32h6.035zm-12.28 0H6.658V34.286h6.035zm38.466 0V21.376a.829.829 0 0 0-.84-.84h-7.714a.829.829 0 0 0-.84.84v24.297h-2.833v-15.9a.829.829 0 0 0-.84-.84h-7.766a.829.829 0 0 0-.84.84v15.9h-2.834v-17.16a.829.829 0 0 0-.84-.84h-7.714a.829.829 0 0 0-.84.84v17.16h-2.833V33.446a.829.829 0 0 0-.84-.84H5.818a.829.829 0 0 0-.84.84v12.227H1.044a.829.829 0 0 0-.84.84c0 .472.367.84.84.84H54.99c.473 0 .84-.368.84-.84.052-.472-.315-.84-.787-.84z"/></g></g></g></g></g></g></svg>