<svg xmlns="http://www.w3.org/2000/svg" width="46" height="46" viewBox="0 0 46 46"><g><g><g><g><g><g><g><path fill="#f5576c" d="M10.517 23.02v-2.775h2.774v2.774z"/></g><g><path fill="#1c8dff" d="M34.818 37.086l-.722.394v4.957h-5.548v-3.099l-1.535.167a21.32 21.32 0 0 1-5.252 0l-1.535-.167v3.099h-5.548v-4.953l-.718-.395a15.108 15.108 0 0 1-6.403-6.364l-.382-.771H3.582v-5.548h2.819l.252-1.07a13.747 13.747 0 0 1 6.135-8.144l-1.518-2.321a16.852 16.852 0 0 0-7.02 8.761H.807v11.096h4.675a17.892 17.892 0 0 0 6.421 6.38v6.103H23v-2.817c.924.057 1.85.057 2.774 0v2.817H36.87v-6.103a16.429 16.429 0 0 0 7.967-10.234l-2.697-.627a14.147 14.147 0 0 1-7.322 8.839z"/></g><g><path fill="#f5576c" d="M41.916 12.567l2.663-.78a15.27 15.27 0 0 0-1.147-2.822l-2.454 1.294c.389.736.703 1.51.938 2.308z"/></g><g><path fill="#f5576c" d="M39.6 8.178l2.146-1.757a15.547 15.547 0 0 0-2.15-2.152l-1.755 2.15a12.632 12.632 0 0 1 1.76 1.76z"/></g><g><path fill="#1c8dff" d="M22.81 29.575a15.257 15.257 0 0 0 7.125 1.766c8.422-.01 15.246-6.835 15.257-15.257 0-.438-.02-.87-.056-1.297l-2.763.23c.028.354.043.714.045 1.071-.004 6.89-5.593 12.473-12.483 12.47-6.89-.005-12.473-5.594-12.469-12.484.004-6.89 5.593-12.472 12.483-12.469 2.025.002 4.02.496 5.811 1.44l1.298-2.452c-7.45-3.935-16.68-1.084-20.615 6.367-3.935 7.45-1.084 16.68 6.366 20.615z"/></g><g><path fill="#f5576c" d="M29.935 19.991l-2.513-3.907 2.513-3.907 2.513 3.907zm-5.809-3.907l5.809 9.038 5.809-9.038-5.81-9.037z"/></g></g></g></g></g></g></g></svg>