<svg xmlns="http://www.w3.org/2000/svg" width="54" height="37" viewBox="0 0 54 37"><g><g><g><g><g><g><path fill="#1c8dff" d="M48.46 28c-2.147.649-4.995 1.005-8.031 1.005-5.748 0-9.643-1.288-10.502-2.304l-.02-.9-.043-2.398c.765.387 1.56.69 2.387.91 2.252.629 5.152.985 8.167.985 3.183 0 6.22-.377 8.555-1.068.806-.23 1.58-.534 2.314-.921v2.69h.01c0 .137-.094.294-.094.45 0 .147-.482.86-2.743 1.55zm2.837 4.25c0 .147-.471.87-2.69 1.56-2.126.66-4.953 1.027-7.969 1.027-3.026 0-5.853-.356-7.947-.995-2.22-.68-2.67-1.382-2.67-1.54v-.02l-.052-3.026c2.492 1.267 6.649 1.843 10.46 1.843 3.235 0 6.293-.388 8.638-1.1.775-.23 1.518-.544 2.23-.921zM29.791 20.597c.105-.293.869-.974 3.015-1.581 2.042-.576 4.702-.89 7.497-.89h.136c2.995 0 5.927.345 8.063.994 2.209.67 2.732 1.34 2.764 1.519v.01c-.01.157-.534.88-2.859 1.57-2.146.64-4.973.985-7.968.985-2.827 0-5.528-.325-7.601-.9-2-.566-2.806-1.205-3.005-1.53a.886.886 0 0 0-.042-.177zm-1.403-1.613h-.094c-1.006 0-1.98-.042-2.88-.104a12.413 12.413 0 0 0-1.874-3.895 37.71 37.71 0 0 0 4.743.303c3.236 0 6.314-.387 8.67-1.1a13.46 13.46 0 0 0 2.303-.941v2.774c-4.502.126-9.151 1.068-10.868 2.963zm-2.576 2.01c.618.043 1.257.063 1.906.074 0 .02.01.052.01.073l.063 3.633a35.95 35.95 0 0 1-2.167-.094c.157-.806.24-1.633.24-2.45a9.84 9.84 0 0 0-.052-1.235zm-2.785 9.194a12.643 12.643 0 0 0 2.01-3.445c.89.073 1.833.126 2.796.136v.188l.052 3.55a32.97 32.97 0 0 1-4.858-.43zm-2.66-.23c-4.261 3.884-10.868 3.57-14.742-.692-3.874-4.261-3.57-10.868.691-14.742a10.457 10.457 0 0 1 7.026-2.722c1.047 0 2.094.157 3.1.46a10.532 10.532 0 0 1 7.14 7.864c.136.69.21 1.403.21 2.104 0 2.953-1.247 5.759-3.424 7.727zm32.951-9.623c-.188-1.361-1.592-2.45-4.22-3.246-2.125-.639-4.816-1.026-7.748-1.089V4.828c0-.23-.073-.45-.22-.628-.345-1.215-1.748-2.199-4.177-2.932-2.356-.712-5.434-1.1-8.67-1.1-3.225 0-6.272.388-8.575 1.1-1.895.587-4.167 1.676-4.167 3.55 0 .115.01.23.031.345l.115 4.775C8.892 8.629 2.327 13.1 1.03 19.906c-.147.764-.22 1.55-.22 2.335 0 6.91 5.622 12.533 12.533 12.533 2.88 0 5.664-.995 7.905-2.806 1.968.46 4.272.712 6.712.733.534 2.9 6.816 4.23 12.68 4.23 3.224 0 6.26-.398 8.585-1.12 1.906-.587 4.167-1.686 4.167-3.56V20.742c0-.136-.02-.282-.073-.408z"/></g></g></g><g><g><g><path fill="#f5576c" d="M18.567 27.832a1.05 1.05 0 0 0-1.351-.607v-.01a5.342 5.342 0 0 1-5.696-1.226 3.447 3.447 0 0 1-.743-.953h5.381a1.05 1.05 0 0 0 1.047-1.047 1.05 1.05 0 0 0-1.047-1.047h-6.146a4.236 4.236 0 0 1-.031-1.152h6.722a1.05 1.05 0 0 0 1.047-1.047 1.05 1.05 0 0 0-1.047-1.047h-6.104c.25-.45.555-.858.91-1.235a5.343 5.343 0 0 1 5.696-1.204 1.044 1.044 0 0 0 .754-1.948 7.439 7.439 0 0 0-7.936 1.686 7.196 7.196 0 0 0-1.728 2.712H6.808a1.05 1.05 0 0 0-1.047 1.047A1.05 1.05 0 0 0 6.808 21.8h1.047c-.02.387-.02.764.021 1.152H6.808A1.05 1.05 0 0 0 5.761 24a1.05 1.05 0 0 0 1.047 1.047H8.41c.356.91.911 1.748 1.613 2.44a7.434 7.434 0 0 0 7.936 1.696 1.05 1.05 0 0 0 .608-1.351z"/></g></g></g></g></g></g></svg>