<svg xmlns="http://www.w3.org/2000/svg" width="77" height="45" viewBox="0 0 77 45"><g><g><g><g><g><g><path fill="#1c8dff" d="M54.774 41.464h-.01c-10.478 0-19.017-8.509-19.017-18.969 0-10.462 8.539-18.97 19.018-18.97h.009c10.487.01 19.017 8.508 19.017 18.97 0 10.46-8.53 18.96-19.017 18.969zM54.764.277c-12.281 0-22.274 9.968-22.274 22.218 0 12.26 9.993 22.228 22.275 22.228 12.29 0 22.285-9.968 22.285-22.228 0-12.25-9.995-22.218-22.285-22.218z"/></g><g><path fill="#f5576c" d="M54.773 36.826h-.009c-7.915 0-14.358-6.426-14.358-14.33 0-7.897 6.443-14.324 14.358-14.324h.01c7.925.009 14.36 6.427 14.36 14.323 0 7.905-6.435 14.323-14.36 14.33zm0-30.635h-.009c-9.013 0-16.345 7.312-16.345 16.304 0 8.992 7.332 16.312 16.345 16.312h.01c9.015-.009 16.345-7.32 16.345-16.312S63.79 6.2 54.773 6.191z"/></g><g><path fill="#1c8dff" d="M58.169 26.53c-.448.219-1.125.329-2.023.329h-2.15v-3.233h1.848c1.053 0 1.804.11 2.288.312.477.208.706.639.706 1.286 0 .648-.22 1.078-.67 1.306zm-4.172-8.39h1.51c.924 0 1.574.101 1.966.301.394.202.587.612.587 1.234 0 .62-.21 1.022-.631 1.213-.43.183-1.071.273-1.942.273h-1.49zm5.225 4.09c.237-.11.412-.182.503-.238.092-.045.265-.163.503-.347.706-.538 1.062-1.35 1.062-2.446 0-.904-.312-1.724-.942-2.446-.349-.384-.87-.694-1.556-.922a6.791 6.791 0 0 0-1.236-.264v-1.871h-1.537v1.798h-1.676v-1.798h-1.536v1.798h-4.522v2.646h1.419c.476 0 1.163.101 1.163 1.123v6.472c0 1.023-.687 1.124-1.163 1.124h-1.419v2.637h4.522v1.798h1.536v-1.798h1.676v1.798h1.537v-1.807c1.638-.083 2.81-.502 3.514-1.287.669-.748 1.007-1.607 1.007-2.583 0-.886-.257-1.626-.778-2.219-.513-.592-1.207-.985-2.077-1.168z"/></g><g><path fill="#f5576c" d="M28.338 28.714H16.523c-2.627 0-2.627 4.065 0 4.065h11.815c2.627 0 2.627-4.065 0-4.065z"/></g><g><path fill="#1c8dff" d="M28.575 12.86H12.782c-2.626 0-2.626 4.06 0 4.06h15.793c2.627 0 2.627-4.06 0-4.06z"/></g><g><path fill="#f5576c" d="M3.791 12.86h-1.87c-2.628 0-2.628 4.06 0 4.06h1.87c2.628 0 2.628-4.06 0-4.06z"/></g><g><path fill="#1c8dff" d="M26.583 20.83H9c-2.629 0-2.629 4.06 0 4.06h17.583c2.628 0 2.628-4.06 0-4.06z"/></g></g></g></g></g></g></svg>