<svg xmlns="http://www.w3.org/2000/svg" width="90" height="90" viewBox="0 0 90 90"><g><g><g><g><path fill="#1c8dff" d="M76.052 15.205A10.467 10.467 0 0 0 65.697 6.18a10.35 10.35 0 0 0-6.048 1.93 17.91 17.91 0 0 0-32.152 5.375 10.428 10.428 0 0 0-15.428 7.626h-.124C5.348 21.112 0 26.461 0 33.057c0 6.598 5.348 11.945 11.945 11.945h7.466v-2.986h-7.466a8.959 8.959 0 1 1 0-17.917c.43.003.86.038 1.285.105.44.04.874-.108 1.195-.41.326-.309.51-.739.506-1.189a7.456 7.456 0 0 1 12.56-5.443 1.492 1.492 0 0 0 2.501-.905 14.921 14.921 0 0 1 27.97-5.163 1.494 1.494 0 0 0 2.39.337 7.467 7.467 0 0 1 12.81 5.202c0 .825.67 1.493 1.494 1.493 6.597 0 11.945 5.349 11.945 11.945 0 6.597-5.348 11.945-11.945 11.945H58.232v2.986h16.424c7.98.008 14.554-6.26 14.927-14.232.374-7.97-5.586-14.827-13.53-15.565z"/></g><g><path fill="#1c8dff" d="M67.19 15.14h2.987v2.986H67.19z"/></g><g><path fill="#1c8dff" d="M61.218 15.14h2.986v2.986h-2.986z"/></g><g><path fill="#f5576c" d="M80.629 30.071a5.972 5.972 0 0 1-5.973 5.973v2.986a8.967 8.967 0 0 0 8.959-8.959z"/></g><g><path fill="#f5576c" d="M68.684 36.044h2.986v2.986h-2.986z"/></g><g><path fill="#1c8dff" d="M38.821 56.947c-7.422 0-13.438-6.016-13.438-13.438 0-7.421 6.016-13.438 13.438-13.438 7.422 0 13.438 6.017 13.438 13.438-.008 7.418-6.02 13.43-13.438 13.438zM55.246 43.51c0-9.07-7.354-16.424-16.425-16.424-9.07 0-16.424 7.354-16.424 16.424 0 9.071 7.353 16.424 16.424 16.424 9.067-.01 16.414-7.357 16.425-16.424z"/></g><g><path fill="#1c8dff" d="M64.204 86.81a5.972 5.972 0 1 1 0-11.945 5.972 5.972 0 0 1 0 11.945zm0-14.932a8.96 8.96 0 1 0 8.959 8.959 8.968 8.968 0 0 0-8.959-8.959z"/></g><g><path fill="#1c8dff" d="M11.945 77.85a4.48 4.48 0 1 1 0-8.957 4.48 4.48 0 0 1 0 8.958zm0-11.944a7.466 7.466 0 1 0 7.466 7.465 7.475 7.475 0 0 0-7.466-7.465z"/></g><g><path fill="#f5576c" d="M77.642 62.92a2.986 2.986 0 1 1 0-5.972 2.986 2.986 0 0 1 0 5.972zm0-8.96a5.973 5.973 0 1 0 0 11.947 5.973 5.973 0 0 0 0-11.946z"/></g><g><path fill="#1c8dff" d="M10.452 59.933h2.986v2.987h-2.986z"/></g><g><path fill="#1c8dff" d="M10.452 53.96h2.986v2.987h-2.986z"/></g><g><path fill="#1c8dff" d="M10.452 47.988h2.986v2.987h-2.986z"/></g><g><path fill="#1c8dff" d="M62.711 65.906h2.986v2.986h-2.986z"/></g><g><path fill="#1c8dff" d="M62.711 59.933h2.986v2.987h-2.986z"/></g><g><path fill="#1c8dff" d="M62.711 50.975h2.986v5.972h-2.986z"/></g><g><path fill="#1c8dff" d="M76.15 47.988h2.985v2.987H76.15z"/></g><g><path fill="#1c8dff" d="M29.863 71.878h2.986v2.987h-2.986z"/></g><g><path fill="#1c8dff" d="M44.794 67.399h2.986v2.986h-2.986z"/></g><g><path fill="#1c8dff" d="M44.794 61.427h2.986v2.986h-2.986z"/></g><g><path fill="#1c8dff" d="M29.863 62.92h2.986v5.972h-2.986z"/></g><g><path fill="#f5576c" d="M40.314 47.989h-4.479v-2.987h4.48a1.493 1.493 0 0 1 0 2.987zm-4.479-8.96h4.48a1.493 1.493 0 0 1 0 2.987h-4.48zm5.972-4.479h-2.986v1.494h-1.493V34.55h-2.986v1.494c-.825 0-1.493.668-1.493 1.493v11.945c0 .825.668 1.493 1.493 1.493v1.493h2.986v-1.493h1.493v1.493h2.986V50.7a4.439 4.439 0 0 0 1.822-7.192 4.436 4.436 0 0 0-1.822-7.19z"/></g><g><path fill="#1c8dff" d="M31.356 86.81a2.986 2.986 0 1 1 0-5.972 2.986 2.986 0 0 1 0 5.972zm0-8.96a5.973 5.973 0 1 0 0 11.946 5.973 5.973 0 0 0 0-11.945z"/></g><g><path fill="#f5576c" d="M46.287 79.344a1.493 1.493 0 1 1-.001-2.986 1.493 1.493 0 0 1 0 2.986zm0-5.973a4.48 4.48 0 1 0 0 8.96 4.48 4.48 0 0 0 0-8.96z"/></g></g></g></g></svg>