<svg xmlns="http://www.w3.org/2000/svg" width="77" height="108" viewBox="0 0 77 108"><g><g><g><g><path fill="#f5576c" d="M68.587 12.396a4.06 4.06 0 1 1 4.06-4.06 4.063 4.063 0 0 1-4.06 4.06zm0-11.985a7.913 7.913 0 0 0-1.854 15.606v7.105H55.34a1.933 1.933 0 0 0-1.933 1.933v8.312a1.933 1.933 0 1 0 3.866 0v-6.379H68.66a1.933 1.933 0 0 0 1.933-1.933v-9.083a7.909 7.909 0 0 0-2.01-15.56z"/></g><g><path fill="#1c8dff" d="M34.198 8.336a4.058 4.058 0 1 1 8.119 0 4.06 4.06 0 0 1-4.06 4.06 4.063 4.063 0 0 1-4.059-4.06zm-30.332 0a4.058 4.058 0 1 1 8.119 0 4.06 4.06 0 0 1-4.06 4.06 4.064 4.064 0 0 1-4.059-4.06zM40.19 36.517V15.994a7.925 7.925 0 1 0-3.866 0v20.523a35.51 35.51 0 0 0-13.144 3.29V25.055a1.934 1.934 0 0 0-1.933-1.933H9.859v-7.128a7.926 7.926 0 1 0-3.866 0v9.061c0 1.068.865 1.933 1.933 1.933h11.388v14.924a35.75 35.75 0 0 0-9.357 52.21 1.935 1.935 0 0 0 3.339-.439 1.934 1.934 0 0 0-.283-1.93 31.593 31.593 0 0 1-6.662-19.517c.003-14.801 10.186-27.657 24.593-31.048C45.352 37.797 60.2 44.763 66.802 58.01c6.604 13.247 3.226 29.296-8.155 38.76-11.382 9.463-27.777 9.854-39.598.945a1.928 1.928 0 0 0-1.937-.269 1.934 1.934 0 0 0-.393 3.353 35.463 35.463 0 0 0 21.538 7.21c19.377-.005 35.228-15.436 35.752-34.805.524-19.371-14.47-35.637-33.819-36.686z"/></g><g><path fill="#f5576c" d="M38.257 50.426c12.042 0 21.804 9.762 21.804 21.804 0 12.042-9.762 21.805-21.804 21.805-12.043 0-21.805-9.763-21.805-21.805.017-12.035 9.77-21.787 21.805-21.804zm0 47.485c14.178 0 25.67-11.494 25.67-25.67 0-14.177-11.492-25.67-25.67-25.67-14.177 0-25.67 11.493-25.67 25.67.019 14.169 11.5 25.65 25.67 25.67z"/></g><g><path fill="#1c8dff" d="M35.124 73.746h5.926a3.13 3.13 0 0 1 3.127 3.127v.455a3.13 3.13 0 0 1-3.127 3.13h-5.926zm5.288-10.123a3.128 3.128 0 1 1 0 6.257h-5.288v-6.257zM30.403 80.457a1.933 1.933 0 1 0 0 3.866h.855v1.36a1.933 1.933 0 1 0 3.866 0v-1.36h.882v1.36a1.933 1.933 0 1 0 3.866 0v-1.36h1.176a7 7 0 0 0 6.994-6.995v-.455a6.955 6.955 0 0 0-2.543-5.348 6.971 6.971 0 0 0-5.087-11.766h-.54v-.968a1.933 1.933 0 1 0-3.866 0v.968h-.882v-.968a1.933 1.933 0 1 0-3.866 0v.968h-.855a1.933 1.933 0 1 0 0 3.866h.855v16.832z"/></g></g></g></g></svg>