<svg xmlns="http://www.w3.org/2000/svg" width="86" height="79" viewBox="0 0 86 79"><g><g><g><g><g><path fill="#1c8dff" d="M72.595 14.141H2.523v-8.15a2.776 2.776 0 0 1 2.773-2.773h64.526a2.776 2.776 0 0 1 2.773 2.773zM10.588 54.386c0-1.123.67-2.128 1.707-2.56l6.618-2.758a3.938 3.938 0 0 0 2.43-3.644v-.273a1.26 1.26 0 0 0 .713-2.346 6.833 6.833 0 0 1-3.402-5.895v-5.377c0-3.012 3.054-5.462 6.806-5.462 3.753 0 6.806 2.45 6.806 5.462v5.377a6.833 6.833 0 0 1-3.403 5.896 1.26 1.26 0 0 0 .632 2.35c.028 0 .055-.003.083-.005v.273c0 1.6.954 3.03 2.43 3.645l6.618 2.757a2.766 2.766 0 0 1 1.706 2.56v8.15H10.588zM69.822.698H5.296A5.299 5.299 0 0 0 .003 5.991v53.772a5.299 5.299 0 0 0 5.293 5.292h42.261a1.26 1.26 0 0 0 0-2.519h-4.705v-8.15a5.278 5.278 0 0 0-3.257-4.886l-6.619-2.757a1.425 1.425 0 0 1-.879-1.32v-1.966a9.357 9.357 0 0 0 2.689-6.547v-5.377c0-4.401-4.184-7.982-9.326-7.982s-9.325 3.58-9.325 7.982v5.377c0 2.473.992 4.822 2.688 6.547v1.967c0 .579-.345 1.096-.879 1.319L11.326 49.5a5.279 5.279 0 0 0-3.257 4.886v8.15H5.296a2.776 2.776 0 0 1-2.773-2.773V16.661h70.072v20.921a1.26 1.26 0 0 0 2.52 0V5.992A5.299 5.299 0 0 0 69.822.697z"/></g></g></g><g><g><g><path fill="#f5576c" d="M6.654 7.42H6.64c-.696 0-1.253.564-1.253 1.26 0 .695.57 1.26 1.267 1.26a1.26 1.26 0 0 0 0-2.52z"/></g></g></g><g><g><g><path fill="#f5576c" d="M14.706 7.42h-.014c-.695 0-1.253.564-1.253 1.26 0 .695.571 1.26 1.267 1.26a1.26 1.26 0 0 0 0-2.52z"/></g></g></g><g><g><g><path fill="#f5576c" d="M10.673 7.42h-.014c-.695 0-1.253.564-1.253 1.26 0 .695.571 1.26 1.267 1.26a1.26 1.26 0 0 0 0-2.52z"/></g></g></g><g><g><g><path fill="#1c8dff" d="M68.478 7.42H20.083a1.26 1.26 0 0 0 0 2.52h48.395a1.26 1.26 0 0 0 0-2.52z"/></g></g></g><g><g><g><path fill="#f5576c" d="M85.155 46.065l-18.148-6.312a1.258 1.258 0 0 0-.828 0l-13.05 4.54a1.26 1.26 0 0 0 .827 2.379l12.637-4.395L83.42 48.13c-.147 1.608-.64 5.212-2.277 9.528-1.995 5.261-6.13 12.608-14.551 18.088-8.385-5.457-12.518-12.764-14.517-17.996-2.238-5.858-2.37-10.477-2.372-10.523a1.26 1.26 0 0 0-2.519.055c.004.202.132 5.023 2.5 11.27 2.184 5.76 6.775 13.864 16.242 19.756a1.259 1.259 0 0 0 1.33 0c9.468-5.892 14.058-13.996 16.243-19.757 2.368-6.246 2.495-11.067 2.5-11.27a1.258 1.258 0 0 0-.845-1.216z"/></g></g></g><g><g><g><path fill="#f5576c" d="M74.782 53.17a1.26 1.26 0 0 0-1.781 0l-7.789 7.789-4.633-4.633a1.26 1.26 0 1 0-1.781 1.781l5.523 5.524a1.255 1.255 0 0 0 1.782 0l8.68-8.68a1.26 1.26 0 0 0 0-1.781z"/></g></g></g><g><g><g><path fill="#f5576c" d="M64.53 28.844a.085.085 0 0 1-.085.085H42.936a.084.084 0 0 1-.084-.085v-4.033c0-.047.037-.084.084-.084h21.509c.046 0 .084.038.084.084zm-.085-6.637H42.936a2.607 2.607 0 0 0-2.604 2.604v4.033a2.607 2.607 0 0 0 2.604 2.604h21.509a2.607 2.607 0 0 0 2.604-2.604v-4.033a2.607 2.607 0 0 0-2.604-2.604z"/></g></g></g><g><g><g><path fill="#1c8dff" d="M59.068 34.306H42.936a1.26 1.26 0 0 0 0 2.52h16.132a1.26 1.26 0 0 0 0-2.52z"/></g></g></g><g><g><g><path fill="#1c8dff" d="M52.346 39.683h-9.41a1.26 1.26 0 0 0 0 2.52h9.41a1.26 1.26 0 0 0 0-2.52z"/></g></g></g></g></g></svg>