<svg xmlns="http://www.w3.org/2000/svg" width="70" height="82" viewBox="0 0 70 82"><g><g><g><g><g><path fill="#1c8dff" d="M65.89 33.598c0 16.615-7.655 27.602-14.076 33.894C44.525 74.634 36.733 77.804 35 77.804c-1.732 0-9.525-3.17-16.814-10.312C11.766 61.2 4.111 50.212 4.111 33.598v-15.99c10.875-3.088 21.003-7.397 30.89-13.143 9.64 5.593 20.273 10.117 30.888 13.142zm2.137-18.905C56.969 11.663 45.846 6.946 35.86 1.05a1.69 1.69 0 0 0-1.719 0C23.868 7.115 13.346 11.578 1.974 14.693A1.69 1.69 0 0 0 .73 16.324v17.274c0 17.79 8.206 29.564 15.09 36.31C23.233 77.17 31.867 81.185 35 81.185c3.135 0 11.769-4.016 19.18-11.279 6.885-6.745 15.09-18.52 15.09-36.309V16.324c0-.762-.509-1.43-1.243-1.63z"/></g><g><path fill="#f5576c" d="M20.015 17.418a1.69 1.69 0 0 0-2.193-.953c-3.02 1.19-6.12 2.285-9.213 3.256a1.69 1.69 0 0 0-1.185 1.613v6.528a1.69 1.69 0 0 0 3.381 0V22.57a140.946 140.946 0 0 0 8.257-2.958 1.69 1.69 0 0 0 .953-2.193z"/></g><g><path fill="#f5576c" d="M23.227 17.739c.227 0 .457-.046.678-.142l.03-.014a1.687 1.687 0 0 0 .866-2.225 1.695 1.695 0 0 0-2.23-.868l-.028.012a1.687 1.687 0 0 0-.868 2.224c.277.635.9 1.013 1.552 1.013z"/></g><g><path fill="#1c8dff" d="M55.143 55.33a1.691 1.691 0 0 0-2.34.49 41.146 41.146 0 0 1-4.858 6.069 43.181 43.181 0 0 1-4.85 4.314 1.691 1.691 0 0 0 2.05 2.689 46.604 46.604 0 0 0 5.23-4.653 44.487 44.487 0 0 0 5.259-6.57 1.69 1.69 0 0 0-.49-2.34z"/></g><g><path fill="#f5576c" d="M39.17 68.854l-.098.058a1.69 1.69 0 0 0 1.694 2.926l.112-.066a1.69 1.69 0 1 0-1.709-2.918z"/></g><g><path fill="#f5576c" d="M48.915 29.084c.4-.4.932-.62 1.497-.62a2.119 2.119 0 0 1 1.496 3.612l-20.84 20.84c-.399.4-.93.62-1.496.62-.565 0-1.097-.22-1.497-.62l-9.982-9.982a2.119 2.119 0 0 1 0-2.993c.4-.4.93-.62 1.496-.62s1.097.22 1.497.62l7.29 7.29a1.691 1.691 0 0 0 2.391 0zM23.477 37.55a5.46 5.46 0 0 0-3.887-1.61c-1.469 0-2.85.572-3.888 1.61a5.505 5.505 0 0 0 0 7.775l9.983 9.983a5.462 5.462 0 0 0 3.887 1.61c1.469 0 2.85-.572 3.888-1.61l20.84-20.84a5.504 5.504 0 0 0 0-7.775 5.461 5.461 0 0 0-3.888-1.61c-1.469 0-2.85.572-3.888 1.61L29.572 43.645z"/></g></g></g></g></g></svg>