<svg xmlns="http://www.w3.org/2000/svg" width="79" height="77" viewBox="0 0 79 77"><g><g><g><g><g><path fill="#1c8dff" d="M66.922 25.406H1.24c-.621 0-1.125.502-1.126 1.123v31.529c0 .622.502 1.126 1.123 1.126h44.665a1.126 1.126 0 0 0 0-2.251H2.365V27.658h63.429v2.815c0 .62.502 1.125 1.123 1.126h.003c.62 0 1.125-.502 1.126-1.123v-3.943c0-.622-.503-1.126-1.124-1.127z"/></g></g></g><g><g><g><path fill="#1c8dff" d="M59.285 20.18L6.741 8.357a1.13 1.13 0 0 0-.85.147c-.252.161-.43.415-.496.707L2.767 21.033a1.126 1.126 0 0 0 2.2.489l2.38-10.72 51.444 11.574a1.126 1.126 0 0 0 .494-2.196z"/></g></g></g><g><g><g><path fill="#f5576c" d="M52.905 13.665L21.378.53a1.13 1.13 0 0 0-1.444.538L17.306 6.32a1.13 1.13 0 1 0 2.02 1.009v.002l2.156-4.314 30.553 12.73a1.129 1.129 0 0 0 .87-2.083z"/></g></g></g><g><g><g><path fill="#f5576c" d="M53.701 30.66H43.275a1.126 1.126 0 0 0 0 2.252H53.7a1.126 1.126 0 0 0 0-2.251z"/></g></g></g><g><g><g><path fill="#1c8dff" d="M32.766 51.753a9.458 9.458 0 0 1-9.458-9.458 9.468 9.468 0 0 1 9.458-9.458 9.458 9.458 0 0 1 9.458 9.458 9.458 9.458 0 0 1-9.458 9.458zm0-21.017c-6.384 0-11.56 5.175-11.56 11.56.007 6.38 5.179 11.552 11.56 11.559 6.384 0 11.56-5.175 11.56-11.56 0-6.384-5.176-11.56-11.56-11.56z"/></g></g></g><g><g><g><path fill="#1c8dff" d="M64.293 42.295c-7.673 0-11.611-1.912-11.823-2.603v-.008c.212-.732 4.15-2.643 11.823-2.643 7.618 0 11.56 1.884 11.822 2.627-.263.744-4.204 2.627-11.822 2.627zm11.822 2.608c-.198.729-4.138 2.647-11.822 2.647-7.685 0-11.625-1.918-11.823-2.627v-2.065c2.795 1.401 7.413 2.065 11.823 2.065s9.028-.664 11.822-2.067zm0 5.254c-.198.73-4.138 2.647-11.822 2.647-7.685 0-11.625-1.918-11.823-2.627v-2.065c2.795 1.402 7.413 2.065 11.823 2.065s9.028-.663 11.822-2.066zm0 5.255c-.198.729-4.138 2.647-11.822 2.647-7.685 0-11.625-1.918-11.823-2.628v-2.065c2.795 1.409 7.413 2.065 11.823 2.065s9.028-.663 11.822-2.066zm0 5.254c-.198.73-4.138 2.647-11.822 2.647-7.685 0-11.625-1.918-11.823-2.627V58.62c2.795 1.408 7.413 2.065 11.823 2.065s9.028-.664 11.822-2.067zm0 5.254c-.198.73-4.138 2.647-11.822 2.647-7.685 0-11.625-1.918-11.823-2.627v-2.065c2.795 1.408 7.413 2.065 11.823 2.065s9.028-.663 11.822-2.066zm0 5.255c-.198.729-4.138 2.647-11.822 2.647-7.685 0-11.625-1.918-11.823-2.627V69.13c2.795 1.408 7.413 2.065 11.823 2.065s9.028-.664 11.822-2.067zM64.293 34.414c-6.963 0-14.45 1.644-14.45 5.254v31.527c0 3.61 7.487 5.254 14.45 5.254 6.962 0 14.45-1.645 14.45-5.254V39.668c0-3.61-7.488-5.254-14.45-5.254z"/></g></g></g><g><g><g><path fill="#f5576c" d="M22.257 51.677h-9.93l-4.707-5.15V37.99l5.2-5.077h9.437a1.126 1.126 0 0 0 0-2.251h-9.895c-.294 0-.577.114-.788.319l-5.868 5.723c-.22.256-.34.583-.339.92v9.342c0 .281.105.552.294.76l5.337 5.837c.214.234.516.367.832.367h10.427a1.126 1.126 0 0 0 0-2.252z"/></g></g></g><g><g><g><path fill="#f5576c" d="M33.423 40.982h-1.314c-.408 0-.657-.229-.657-.329s.249-.328.657-.328h3.284a1.314 1.314 0 0 0 0-2.627H34.08a1.314 1.314 0 0 0-2.627 0v.059a3.058 3.058 0 0 0-2.628 2.89 3.137 3.137 0 0 0 3.284 2.962h1.314c.408 0 .657.229.657.328 0 .1-.249.329-.657.329h-3.284a1.314 1.314 0 0 0 0 2.627h1.313a1.314 1.314 0 0 0 2.628 0v-.06a3.058 3.058 0 0 0 2.627-2.89 3.137 3.137 0 0 0-3.284-2.961z"/></g></g></g></g></g></svg>